<svg width="40" height="75" viewBox="0 0 40 75" fill="none" xmlns="http://www.w3.org/2000/svg">
<path d="M32.2644 60.4759H24.2796V57.7737H30.9133V28.1974C30.9133 24.4323 28.9047 20.9532 25.644 19.0708C22.3839 17.1883 18.366 17.1883 15.1053 19.0708C11.8452 20.9532 9.83593 24.4325 9.83593 28.1974V57.7737H15.8352V60.4759H8.47154C7.72541 60.4759 7.12042 59.8709 7.12042 59.1248V28.1974C7.12042 23.4672 9.64415 19.0961 13.7409 16.7303C17.8376 14.3654 22.8851 14.3654 26.9818 16.7303C31.0785 19.096 33.6023 23.4672 33.6023 28.1974V59.1248C33.6023 59.8655 33.0057 60.4687 32.2644 60.4759H32.2644Z" fill="white"/>
<path d="M7.11981 58.5164H9.82204V66.4205H7.11981V58.5164Z" fill="white"/>
<path d="M20.3608 75C19.108 74.9964 17.907 74.497 17.021 73.6109C16.1349 72.7248 15.6354 71.5239 15.6318 70.2711V46.249C15.6318 44.5596 16.533 42.9985 17.9962 42.1535C19.4595 41.3091 21.2617 41.3091 22.7251 42.1535C24.1884 42.9986 25.0895 44.5596 25.0895 46.249V70.2711C25.0859 71.5239 24.5864 72.7249 23.7004 73.6109C22.8143 74.497 21.6133 74.9964 20.3606 75H20.3608ZM20.3608 44.2224C19.2413 44.2224 18.3341 45.1296 18.3341 46.2491V70.2711C18.3341 71.3906 19.2413 72.2978 20.3608 72.2978C21.4802 72.2978 22.3874 71.3906 22.3874 70.2711V46.2491C22.3651 45.1453 21.4646 44.2628 20.3608 44.2628V44.2224Z" fill="white"/>
<path d="M37.0204 48.18H32.0485V43.3836H36.9932C37.5524 43.3836 38.0886 43.6056 38.4837 44.0007C38.8794 44.3963 39.1013 44.9326 39.1013 45.4911V46.0726C39.1013 47.2258 38.1742 48.165 37.0203 48.18H37.0204Z" fill="white"/>
<path d="M8.47099 68.8127H4.87734C3.7132 68.8127 2.76929 67.8687 2.76929 66.7046V66.1238C2.76929 64.9596 3.71326 64.0164 4.87734 64.0164H8.47099C8.82928 64.0164 9.17309 64.1587 9.42642 64.412C9.67975 64.6654 9.82211 65.0092 9.82211 65.3675V67.4616C9.82211 67.8199 9.67976 68.1637 9.42642 68.4171C9.17309 68.6704 8.82928 68.8127 8.47099 68.8127V68.8127Z" fill="white"/>
<path d="M14.1055 6.9174H3.29657C2.93044 6.91982 2.5794 6.77324 2.32364 6.51207L0.445359 4.64768C0.0382176 4.11267 0.0864715 3.35991 0.558153 2.88104C1.03044 2.40211 1.7826 2.34301 2.32371 2.74291L3.79667 4.21588H14.0784V4.21527C14.8246 4.21527 15.4295 4.82027 15.4295 5.56639C15.4295 6.31312 14.8246 6.9175 14.0784 6.9175L14.1055 6.9174Z" fill="white"/>
<path d="M36.4938 6.91742H25.6849C24.9382 6.91742 24.3338 6.31303 24.3338 5.5663C24.3338 4.82018 24.9382 4.21519 25.6849 4.21519H35.9667L37.4529 2.74283C37.6978 2.45691 38.0506 2.28623 38.427 2.27114C38.8034 2.25666 39.1683 2.40022 39.4343 2.66622C39.7009 2.93223 39.8439 3.29774 39.8294 3.67352C39.8149 4.0499 39.6436 4.40277 39.3577 4.64765L37.4529 6.51203C37.2001 6.7702 36.8545 6.91616 36.4938 6.91737V6.91742Z" fill="white"/>
<path d="M20.3608 16.0111C19.6146 16.0111 19.0096 15.4061 19.0096 14.6599V11.0385C19.0096 10.2924 19.6146 9.68738 20.3608 9.68738C21.1069 9.68738 21.7119 10.2924 21.7119 11.0385V14.646C21.7155 15.0067 21.575 15.3542 21.321 15.6105C21.0671 15.8669 20.7215 16.011 20.3608 16.011V16.0111Z" fill="white"/>
<path d="M20.2125 11.7277C18.6569 11.7277 17.1659 11.11 16.0657 10.0098C14.9661 8.91024 14.3485 7.41924 14.3485 5.86353C14.3485 4.30859 14.9662 2.81696 16.0657 1.71723C17.1659 0.617637 18.6569 0 20.2125 0C21.7674 0 23.2591 0.617653 24.3588 1.71723C25.4585 2.8168 26.076 4.30843 26.076 5.86353C26.076 7.41909 25.4584 8.9101 24.3588 10.0098C23.2592 11.11 21.7676 11.7277 20.2125 11.7277ZM20.2125 2.71566C19.3735 2.71566 18.5694 3.04861 17.9766 3.64154C17.3838 4.23447 17.0507 5.0385 17.0507 5.87744C17.0507 6.71586 17.3837 7.51994 17.9766 8.11288C18.5695 8.70583 19.3736 9.03876 20.2125 9.03876C21.0509 9.03876 21.855 8.70581 22.4479 8.11288C23.0409 7.51995 23.3738 6.71592 23.3738 5.87744C23.3738 5.03842 23.0409 4.23433 22.4479 3.64154C21.855 3.04875 21.051 2.71566 20.2125 2.71566Z" fill="white"/>
</svg>
