<svg width="135" height="73" viewBox="0 0 135 73" fill="none" xmlns="http://www.w3.org/2000/svg">
<path d="M111.905 29.0752C109.063 29.0903 106.354 29.6666 103.869 30.6848L103.46 30.8527L103.243 30.466L99.9079 24.4959L99.5678 23.8873L100.253 23.7604L104.809 22.9169L104.81 22.9169C105.423 22.8035 105.958 22.4332 106.281 21.9005C106.605 21.3657 106.683 20.7205 106.498 20.1263L106.498 20.1257L103.185 9.43522C102.86 8.38698 101.802 7.74782 100.722 7.9305C100.722 7.93058 100.722 7.93065 100.721 7.93072L91.5108 9.54755L91.2345 9.59606L91.0491 9.38547L83.8785 1.24059C83.462 0.770685 82.8638 0.5 82.2385 0.5L71.2943 0.501422C70.0883 0.501422 69.1131 1.47668 69.1131 2.68269C69.1131 3.8887 70.0883 4.86395 71.2943 4.86395H81.0267H81.2526L81.4019 5.03354L83.2355 7.11597L84.0137 7.99991L82.8372 7.94586C77.8984 7.71895 71.7292 9.99712 66.0696 12.8564C60.4311 15.705 55.3841 19.0853 52.7163 20.971L52.401 21.1938L52.1057 20.9452C47.7794 17.3032 42.2259 15.2448 36.5465 15.2448H23.8257C14.9983 15.2448 7.81562 22.4275 7.81562 31.2549C7.81562 31.9453 8.16327 32.5438 8.70031 32.9543L9.21072 33.3444L8.70719 33.7434C3.71542 37.6987 0.5 43.7974 0.5 50.6437C0.5 62.5379 10.1764 72.2167 22.0701 72.2167C33.9637 72.2167 43.6402 62.5379 43.6402 50.6437C43.6402 49.8539 43.5903 49.0727 43.5065 48.2994L43.393 47.2515L44.2764 47.8265L60.309 58.2622L111.905 29.0752ZM111.905 29.0752H112.019C123.913 29.0752 133.592 38.7513 133.592 50.6453C133.592 62.5394 123.913 72.2183 112.019 72.2183C103.059 72.2183 95.3596 66.7224 92.1058 58.9245L91.9776 58.617H91.6444H61.5007C61.081 58.617 60.6663 58.4936 60.3098 58.2627L111.905 29.0752ZM22.07 67.8535C12.5822 67.8535 4.86373 60.1334 4.86373 50.6443C4.86373 41.1565 12.5838 33.438 22.07 33.438C31.5578 33.438 39.2763 41.158 39.2764 50.6442L22.07 67.8535ZM22.07 67.8535C31.5578 67.8535 39.2778 60.1335 39.2764 50.6443L22.07 67.8535ZM110.943 44.2467L113.509 48.8381H113.508L113.924 49.582L113.924 49.5822C114.512 50.6321 114.135 51.9617 113.083 52.55C112.745 52.738 112.381 52.8268 112.022 52.8268C111.256 52.8268 110.515 52.4236 110.115 51.7074L107.13 46.3676L106.758 45.7006L106.296 46.3093C105.381 47.5145 104.811 49.0059 104.811 50.644C104.811 54.6199 108.045 57.8537 112.019 57.8537C115.995 57.8537 119.229 54.6214 119.229 50.644C119.229 46.6709 115.997 43.4373 112.019 43.4373C111.878 43.4373 111.746 43.4516 111.633 43.4662C111.59 43.4718 111.552 43.477 111.516 43.4819C111.45 43.491 111.393 43.4989 111.33 43.5053L110.571 43.5811L110.943 44.2467ZM99.7167 12.9853L99.5864 12.5647L99.1527 12.6408L94.5014 13.4571L93.8079 13.5788L94.1514 14.1935L97.147 19.5547L97.3219 19.8677L97.6744 19.8025L101.051 19.1781L101.604 19.0758L101.438 18.5384L99.7167 12.9853ZM54.6139 24.9754L54.4053 25.1251L86.6424 14.8074L87.069 14.5466C87.0688 14.5463 87.0686 14.546 87.0685 14.5458C86.3492 13.37 85.2912 12.6931 83.8189 12.4117L83.8177 12.4115C81.8397 12.0381 79.4173 12.3798 76.8388 13.133C74.2499 13.8891 71.4524 15.0756 68.7014 16.4437C63.199 19.1799 57.8342 22.6669 54.6139 24.9754ZM36.5461 19.6102H23.8264V19.6101C18.3691 19.6101 13.7779 23.381 12.5221 28.4548L12.3686 29.0749H13.0075H49.5415H50.0415V28.5749V25.1895V24.9693L49.879 24.8206C46.2609 21.5106 41.4714 19.6102 36.5461 19.6102ZM90.1967 54.2537V53.7887L90.6918 53.6832C90.5488 52.6794 90.4521 51.6716 90.4521 50.6443C90.4521 43.5107 93.9481 37.1907 99.3072 33.2601L99.6635 32.9987L99.448 32.613L93.7343 22.3873L93.1461 21.3346L92.8168 22.4946C92.4083 23.9335 91.7276 25.1532 90.9785 26.127C88.6544 29.1462 84.6209 31.3568 79.8048 32.8105C75.0002 34.2608 69.4789 34.9386 64.2577 34.9386C59.7035 34.9386 55.4266 34.4116 52.0456 33.4568L51.979 33.438H51.9098H36.4539H35.1085L36.1273 34.3166C38.131 36.0445 39.8214 38.1221 41.0816 40.466L41.1421 40.5785L41.2492 40.6483L62.0277 54.1727L62.1521 54.2537H62.3004H90.1967ZM94.8162 50.6443C94.8162 59.9662 102.265 67.5808 111.522 67.8464V67.8536H112.022C121.512 67.8536 129.232 60.1336 129.232 50.6444C129.232 41.158 121.512 33.4381 112.022 33.4381C109.953 33.4381 108.003 33.8636 106.18 34.5265L105.628 34.7273L105.915 35.2402L108.215 39.3568L108.41 39.7054L108.793 39.5926C109.841 39.2838 110.908 39.0738 112.023 39.0738C118.403 39.0738 123.596 44.2666 123.596 50.6443C123.596 57.025 118.403 62.2177 112.023 62.2177C105.645 62.2177 100.452 57.0265 100.452 50.6443C100.452 47.2473 101.952 44.2153 104.301 42.0924L104.597 41.8253L104.402 41.4775L102.115 37.3853L101.828 36.8712L101.367 37.2382C97.4114 40.3892 94.8162 45.1928 94.8162 50.6443Z" fill="white" stroke="#0A466A"/>
<path d="M22.0663 38.5742C15.4109 38.5742 9.99579 43.9908 9.99579 50.6447C9.99579 57.303 15.4123 62.7181 22.0663 62.7181C28.7202 62.7181 34.1367 57.3015 34.1367 50.6447C34.1381 43.9893 28.7216 38.5742 22.0663 38.5742ZM22.0663 57.3543C18.3681 57.3543 15.3581 54.3445 15.3581 50.6447C15.3581 46.9465 18.3679 43.938 22.0663 43.938C25.7646 43.938 28.773 46.9478 28.773 50.6447C28.7744 54.3458 25.7646 57.3543 22.0663 57.3543Z" fill="white"/>
<path d="M76.6543 39.663H71.2905C69.8084 39.663 68.6093 40.8621 68.6093 42.3442C68.6093 43.8264 69.8084 45.0255 71.2905 45.0255H76.6543C78.1364 45.0255 79.3355 43.8264 79.3355 42.3442C79.3355 40.8621 78.1364 39.663 76.6543 39.663Z" fill="white"/>
</svg>
