<svg width="66" height="73" viewBox="0 0 66 73" fill="none" xmlns="http://www.w3.org/2000/svg">
<path d="M17.6325 53.2393C17.6325 54.8755 16.306 56.2014 14.6705 56.2014C13.0343 56.2014 11.7084 54.8756 11.7084 53.2393C11.7084 51.6039 13.0343 50.2773 14.6705 50.2773C16.3059 50.2773 17.6325 51.6038 17.6325 53.2393Z" fill="white" stroke="#0A466A" stroke-width="0.5"/>
<path d="M53.4233 53.2393C53.4233 54.8755 52.0975 56.2014 50.4612 56.2014C48.8258 56.2014 47.4992 54.8755 47.4992 53.2393C47.4992 51.6039 48.8257 50.2773 50.4612 50.2773C52.0973 50.2773 53.4233 51.6038 53.4233 53.2393Z" fill="white" stroke="#0A466A" stroke-width="0.5"/>
<path d="M18.1697 40.9752H46.962C48.0841 40.9752 48.993 41.8848 48.993 43.0062C48.993 44.1276 48.0834 45.0373 46.962 45.0373H18.1697C17.0484 45.0373 16.1387 44.1276 16.1387 43.0062C16.1387 41.8849 17.0483 40.9752 18.1697 40.9752Z" fill="white" stroke="#0A466A" stroke-width="0.5"/>
<path d="M62.8505 40.9752L59.7737 40.9752H59.6198L59.5505 40.8378L54.2994 30.4255C52.9933 27.8355 50.3824 26.2275 47.4836 26.2275L17.6485 26.2267C14.7498 26.2267 12.1388 27.834 10.8327 30.4246L10.8327 30.4247L5.58165 40.837L5.51234 40.9744H5.35842H2.28102C1.15961 40.9744 0.25 41.8841 0.25 43.0054C0.25 44.1269 1.15965 45.0365 2.28102 45.0365H6.7628C7.52931 45.0365 8.23067 44.6051 8.57641 43.9199L14.4601 32.2531C15.0706 31.0415 16.2914 30.2888 17.6471 30.2888H47.4822C48.8379 30.2888 50.0587 31.0423 50.6692 32.253L56.5528 43.9198L62.8505 40.9752ZM62.8505 40.9752C63.9726 40.9752 64.88 41.8846 64.8793 43.0053V43.0054M62.8505 40.9752L64.8793 43.0054M64.8793 43.0054C64.8793 44.1268 63.9697 45.0365 62.8482 45.0365H58.3665C57.6008 45.0365 56.8995 44.6059 56.5529 43.92L64.8793 43.0054Z" fill="white" stroke="#0A466A" stroke-width="0.5"/>
<path d="M6.57369 15.7382H7.06722L6.82225 15.9859C8.04574 17.1469 9.63139 17.7813 11.3161 17.7813C13.0824 17.7813 14.7399 17.0838 15.9862 15.8124C18.1344 13.6188 18.5214 10.2474 16.9248 7.61256L6.57369 15.7382ZM6.57369 15.7382C4.48848 13.5433 4.12803 10.2192 5.70744 7.61255C5.70745 7.61252 5.70747 7.6125 5.70749 7.61247L9.57899 1.22839L9.57914 1.22815C9.9467 0.620504 10.6047 0.25 11.3153 0.25C12.026 0.25 12.6849 0.620562 13.0532 1.22758C13.0532 1.2276 13.0532 1.22762 13.0532 1.22764L16.9247 7.6125L6.57369 15.7382ZM8.94975 10.0991L9.17998 9.71945L11.1014 6.5512L11.3152 6.19873L11.5289 6.5512L13.4504 9.71945L13.4504 9.7195C14.0747 10.7494 13.9216 12.1136 13.0843 12.9693L13.084 12.9697C12.1309 13.9405 10.498 13.9409 9.54697 12.9694L8.94975 10.0991ZM8.94975 10.0991H8.99035M8.94975 10.0991H8.99035M8.99035 10.0991C8.60167 11.0661 8.80753 12.2151 9.54693 12.9694L8.99035 10.0991Z" fill="white" stroke="#0A466A" stroke-width="0.5"/>
<path d="M27.9683 15.8851C29.2052 17.1101 30.8332 17.7813 32.5661 17.7813C34.3308 17.7813 35.9883 17.0839 37.2354 15.8132C39.3835 13.6195 39.7706 10.2482 38.1739 7.61247L34.3025 1.22783L27.9683 15.8851ZM27.9683 15.8851V15.7382H27.8228C25.7368 13.5433 25.3764 10.2176 26.9558 7.61257C26.9558 7.61255 26.9558 7.61254 26.9558 7.61253L30.8281 1.22841L30.8283 1.22815C31.1958 0.620544 31.8545 0.25 32.5645 0.25C33.2742 0.25 33.9331 0.620423 34.3024 1.22758L27.9683 15.8851ZM30.2396 10.0991C29.8511 11.0663 30.0585 12.2155 30.7979 12.9695L30.7979 12.9696C31.7485 13.9389 33.3798 13.9417 34.3333 12.9696L34.3334 12.9694C35.1717 12.1136 35.3237 10.7493 34.6996 9.7195L34.6995 9.71945L32.7781 6.5512L32.5643 6.19873L32.3506 6.5512L30.4291 9.71945L30.1989 10.0991H30.2396Z" fill="white" stroke="#0A466A" stroke-width="0.5"/>
<path d="M51.4505 10.55L51.6808 10.1704L53.6022 7.00213L53.816 6.64966L54.0297 7.00213L55.9512 10.1704L55.9512 10.1704C56.5753 11.2002 56.4233 12.5637 55.5849 13.4188C54.6318 14.3914 52.9989 14.3918 52.0478 13.4188L51.4505 10.55ZM51.4505 10.55H51.4909M51.4505 10.55H51.4909M51.4909 10.55C51.1018 11.5168 51.3084 12.6644 52.0475 13.4185L51.4909 10.55ZM49.2095 16.3265L49.1476 16.2633C46.9977 14.0697 46.6115 10.6984 48.209 8.06348C48.209 8.06348 48.209 8.06348 48.209 8.06347L52.0805 1.67851L52.0807 1.67828C52.4482 1.07064 53.1062 0.700134 53.8168 0.700134C54.5265 0.700134 55.1847 1.07122 55.5532 1.67851C55.5532 1.67853 55.5532 1.67855 55.5532 1.67857L59.4247 8.06348L59.4247 8.06352C61.023 10.6984 60.6359 14.0705 58.4853 16.2633L58.4853 16.2633C57.2398 17.534 55.5823 18.2323 53.816 18.2323C52.0792 18.2323 50.4476 17.5572 49.2095 16.3265Z" fill="white" stroke="#0A466A" stroke-width="0.5"/>
<path d="M6.35572 64.6554V64.52L6.24236 64.446C4.4565 63.2804 3.27261 61.2688 3.27261 58.9833V54.2269C3.27261 53.1056 4.18226 52.1959 5.30363 52.1959C6.425 52.1959 7.33465 53.1055 7.33465 54.2269V58.9833C7.33465 60.3372 8.43259 61.4396 9.78542 61.4396H55.3467C56.6996 61.4396 57.7975 60.3372 57.7975 58.9833V54.2269C57.7975 53.1056 58.7071 52.1959 59.8285 52.1959C60.9505 52.1959 61.8596 53.1054 61.8603 54.2279V58.9841C61.8603 61.2699 60.6763 63.2821 58.8898 64.4468L58.7764 64.5207V64.6562V68.4752C58.7764 70.8324 56.8593 72.75 54.5049 72.75H51.3996C49.0451 72.75 47.1281 70.8324 47.1281 68.4752V65.7534V65.5034H46.8781H18.2549H18.0049V65.7534V68.4752C18.0049 70.8324 16.0886 72.75 13.7325 72.75H10.628C8.27275 72.75 6.35572 70.8323 6.35572 68.4752V64.6554ZM13.7346 68.6869L13.9835 68.6839L13.9815 68.4349L13.9601 65.7505L13.9581 65.5025H13.7101H10.6676H10.4176V65.7525V68.4743V68.7274L10.6706 68.7243L13.7346 68.6869ZM51.1889 68.4743V68.7274L51.4419 68.7243L54.506 68.687L54.755 68.684L54.7529 68.435L54.7306 65.7504L54.7286 65.5025H54.4806H51.4389H51.1889V65.7525V68.4743Z" fill="white" stroke="#0A466A" stroke-width="0.5"/>
</svg>
