<svg width="127" height="62" viewBox="0 0 127 62" fill="none" xmlns="http://www.w3.org/2000/svg">
<path d="M31.2752 24.6182H47.2671C48.1762 24.6182 49.0475 24.2569 49.6902 23.6142C50.333 22.9715 50.6943 22.1002 50.6943 21.191V8.50756C50.7083 7.58968 50.3531 6.7052 49.7087 6.05108C49.0651 5.39697 48.185 5.02856 47.2671 5.02856H37.3023C35.8657 5.05142 34.5215 5.73985 33.6651 6.89336C33.3758 7.30043 33.731 6.64366 27.5995 18.6052V18.6043C26.9472 19.8853 27.0061 21.4126 27.756 22.639C28.506 23.8655 29.838 24.6145 31.2755 24.6181L31.2752 24.6182ZM47.2671 7.65495C47.704 7.65495 48.061 8.00487 48.068 8.44271V21.1912C48.068 21.6334 47.7093 21.9922 47.2671 21.9922H37.1704C37.1704 6.56482 37.1704 7.65508 37.3014 7.65508L47.2671 7.65495ZM29.9363 19.7993L34.5451 10.8193V21.9923H31.2755C30.7523 21.9896 30.267 21.7162 29.9945 21.2696C29.7219 20.8229 29.6999 20.2664 29.9364 19.7995L29.9363 19.7993Z" fill="white"/>
<path d="M29.792 43.1038C28.2701 43.1038 26.8106 43.7078 25.7346 44.7839C24.6585 45.86 24.0544 47.3196 24.0544 48.8413C24.0544 50.3624 24.6584 51.8218 25.7346 52.8979C26.8107 53.974 28.2703 54.578 29.792 54.578C31.3137 54.578 32.7724 53.974 33.8485 52.8979C34.9246 51.8217 35.5296 50.3622 35.5296 48.8413C35.5296 47.3194 34.9247 45.86 33.8485 44.7839C32.7724 43.7078 31.3137 43.1038 29.792 43.1038ZM29.792 51.9528C28.533 51.9528 27.3988 51.1941 26.9171 50.0318C26.4353 48.8686 26.7017 47.5305 27.5915 46.6408C28.4812 45.751 29.8202 45.4846 30.9824 45.9664C32.1456 46.4482 32.9035 47.5824 32.9035 48.8413C32.9035 50.5593 31.51 51.9528 29.7921 51.9528L29.792 51.9528Z" fill="white"/>
<path d="M103.788 43.1038C102.266 43.1038 100.806 43.7078 99.7313 44.7839C98.6551 45.86 98.0502 47.3196 98.0502 48.8413C98.0502 50.3624 98.6551 51.8218 99.7313 52.8979C100.807 53.974 102.266 54.578 103.788 54.578C105.31 54.578 106.769 53.974 107.844 52.8979C108.92 51.8217 109.525 50.3622 109.525 48.8413C109.525 47.3194 108.921 45.86 107.844 44.7839C106.769 43.7078 105.31 43.1038 103.788 43.1038ZM103.788 51.9528C102.53 51.9528 101.395 51.1941 100.913 50.0318C100.431 48.8686 100.698 47.5305 101.587 46.6408C102.478 45.751 103.816 45.4846 104.978 45.9664C106.141 46.4482 106.899 47.5824 106.899 48.8413C106.899 49.666 106.571 50.4573 105.988 51.0411C105.405 51.6249 104.613 51.9528 103.788 51.9528L103.788 51.9528Z" fill="white"/>
<path d="M124.166 42.0796L123.142 30.4338C122.907 27.8902 121.434 25.6255 119.203 24.3813L119.032 22.5042V22.5033C118.926 21.2812 118.381 20.1382 117.497 19.2863C116.614 18.4344 115.452 17.9306 114.227 17.869L89.1624 16.792L82.0725 4.70025C80.3546 1.79273 77.2307 0.00697734 73.8537 0H29.4485C27.7025 0.00263766 25.9907 0.487964 24.5014 1.40058C23.012 2.31231 21.8032 3.61793 21.0066 5.17239L12.2629 22.1753V20.5338C12.2594 19.5192 11.8541 18.5477 11.1349 17.832C10.4166 17.1154 9.44331 16.7136 8.42881 16.7136H3.83412C2.81952 16.7136 1.84625 17.1154 1.12713 17.832C0.408827 18.5477 0.00351118 19.5192 0 20.5338V35.5013C0 36.5185 0.40356 37.4936 1.12274 38.2128C1.84193 38.9311 2.81696 39.3355 3.83423 39.3355C8.4431 39.3355 8.86242 39.4147 9.66323 39.1254V41.8563H8.24508C6.59307 41.8703 5.25833 43.2102 5.25135 44.863V48.0141C5.25926 49.6714 6.60092 51.013 8.25813 51.02H17.1731C17.8554 55.1416 20.5045 58.6707 24.27 60.4783C28.0355 62.2859 32.4465 62.1453 36.0883 60.0994C39.7309 58.0544 42.1478 54.3627 42.5653 50.2066H45.821C46.3872 50.757 47.1451 51.0674 47.9355 51.0727H85.6424C86.4328 51.0674 87.1898 50.757 87.756 50.2066H91.0256C91.4424 54.3627 93.8593 58.0544 97.5017 60.0994C101.144 62.1453 105.555 62.286 109.321 60.4783C113.086 58.6707 115.735 55.1416 116.418 51.02C116.785 51.0991 116.339 51.02 122.983 51.02C123.788 51.0305 124.564 50.7193 125.139 50.1548C125.713 49.5904 126.038 48.8193 126.041 48.014V44.8629C126.041 43.6391 125.298 42.5383 124.164 42.0794L124.166 42.0796ZM9.63873 35.5146H9.63785C9.63785 35.8355 9.51036 36.1424 9.28441 36.3692C9.05758 36.5952 8.75073 36.7226 8.42982 36.7226H3.83513C3.51246 36.7226 3.20298 36.5934 2.97615 36.3639C2.74932 36.1353 2.62359 35.8241 2.6271 35.5014V20.5339C2.63414 19.8719 3.17309 19.3391 3.83513 19.3391H8.43072H8.42984C9.09188 19.3391 9.63082 19.8719 9.63787 20.5339L9.63873 35.5146ZM114.121 20.4944C115.358 20.5437 116.366 21.5064 116.471 22.7399L116.537 23.4881C115.92 23.409 110.13 23.0679 92.2086 21.9522L90.764 19.4842L114.121 20.4944ZM12.3284 32.1403C12.375 29.2346 13.0986 26.3797 14.4429 23.8037L23.3711 6.38062H23.3703C23.9479 5.24822 24.828 4.2978 25.912 3.63493C26.997 2.97201 28.2436 2.62296 29.5151 2.6256H73.8527C76.2977 2.62648 78.559 3.91978 79.8005 6.02626C88.1513 20.2193 84.8683 14.6521 90.3044 23.882H90.3035C90.525 24.2574 90.9189 24.4992 91.3541 24.5255L115.788 26.0483C117.004 26.1142 118.154 26.6198 119.026 27.4691C119.898 28.3193 120.431 29.4561 120.528 30.6703L121.526 41.8564H120.213C118.356 37.4859 114.833 34.0368 110.424 32.2713C106.017 30.5059 101.086 30.57 96.7266 32.4507C92.3657 34.3313 88.9351 37.8718 87.1926 42.2898C86.2606 41.7386 85.7217 41.8564 83.1491 41.8564L85.7753 37.7206H85.7744C86.5252 36.5442 86.9218 35.177 86.9174 33.7818C86.9174 22.3988 86.9965 23.0293 86.7336 22.5958C84.4363 18.657 87.8493 24.486 77.7007 7.20804H77.6998C77.2998 6.52226 76.7239 5.95518 76.031 5.56481C75.3391 5.17531 74.5557 4.97662 73.7609 4.98893H57.1132C56.2323 4.99948 55.3918 5.35907 54.7754 5.98946C54.1599 6.61985 53.8205 7.46915 53.8311 8.35005C53.8311 43.104 53.7133 40.95 54.0808 41.857C47.5158 41.857 47.3715 41.7129 46.4397 42.2905H46.4388C44.6998 37.8673 41.2682 34.3215 36.9049 32.4374C32.5413 30.5541 27.6065 30.4899 23.1955 32.258C18.7836 34.0261 15.2598 37.4813 13.4056 41.857H12.2635L12.3284 32.1403ZM114.988 42.6441C108.975 31.7991 92.3923 34.9634 91.026 47.515H88.6495V47.2785C89.0926 42.8947 91.4145 38.9189 95.0148 36.3781C98.6142 33.8372 103.139 32.9817 107.418 34.0323C111.697 35.083 115.31 37.9369 117.324 41.8564H116.983C116.243 41.8661 115.534 42.1465 114.987 42.6442L114.988 42.6441ZM25.3918 36.8018C22.4939 37.8648 20.0789 39.9396 18.5911 42.6441C18.0407 42.1553 17.3312 41.8845 16.5953 41.8827H16.2665C18.2843 37.9711 21.8961 35.1253 26.1707 34.078C30.4454 33.0309 34.9635 33.8863 38.5605 36.4219C42.1565 38.9585 44.4793 42.9271 44.9285 47.3048V47.5413H42.5519C42.1528 43.6034 39.9566 40.0708 36.6014 37.9704C33.2455 35.8709 29.108 35.4392 25.3915 36.802L25.3918 36.8018ZM47.6328 48.2377C47.6328 47.384 47.5537 48.3555 47.5537 44.8634H47.5546C47.5546 44.6532 47.7243 44.4827 47.9353 44.4827H85.6422C85.8523 44.4827 86.0229 44.6532 86.0229 44.8634V48.2114C85.9622 48.3283 85.84 48.3995 85.7081 48.3951C45.2823 48.3951 47.8031 48.4865 47.6321 48.2377L47.6328 48.2377ZM56.4556 40.5043V24.5388C56.9418 24.6566 54.9978 24.6179 82.2672 24.6179C83.0356 24.6206 83.7803 24.3507 84.3685 23.8557V33.8204C84.3685 35.6325 83.6071 36.3674 80.9413 40.5032V40.504C80.3856 41.3358 79.4466 41.8299 78.447 41.8167H57.7682C57.42 41.8167 57.0859 41.6786 56.8397 41.4325C56.5936 41.1863 56.4547 40.8522 56.4547 40.504L56.4556 40.5043ZM82.2672 21.9919H57.1105C56.7263 21.9919 56.4151 21.6806 56.4151 21.2955V8.35008C56.4151 7.96587 56.7263 7.65464 57.1105 7.65464H73.8505C74.5143 7.64848 75.1306 7.99927 75.4656 8.5734L82.7788 21.0203C82.8966 21.219 82.8983 21.4652 82.7849 21.6656C82.6706 21.867 82.4579 21.9909 82.2266 21.9918L82.2672 21.9919ZM8.24438 48.3955C8.03953 48.3884 7.87688 48.2196 7.87688 48.0148V44.8637C7.87688 44.6536 8.04744 44.483 8.25757 44.483H16.6083C16.8185 44.483 16.989 44.6536 16.989 44.8637V48.0148C16.989 48.2249 16.8185 48.3955 16.6083 48.3955H8.24438ZM29.7902 59.0303C26.2592 59.0268 22.9817 57.1954 21.1275 54.1894C19.2741 51.1842 19.1097 47.4335 20.6914 44.2764C22.2739 41.1201 25.3775 39.0073 28.8943 38.6934C32.412 38.3795 35.8408 39.9093 37.9563 42.7368C38.1638 42.9865 38.3484 43.2547 38.5075 43.5369C39.7648 45.6092 40.2431 48.0605 39.8571 50.4528C39.4711 52.846 38.2464 55.0221 36.4017 56.594C34.5572 58.1651 32.2133 59.0293 29.7901 59.0302L29.7902 59.0303ZM103.788 59.0303C100.859 59.0285 98.0718 57.7651 96.1384 55.5637C94.2059 53.3613 93.3144 50.4344 93.6916 47.5287C93.8947 45.7914 94.5611 44.1402 95.6214 42.7494C97.7377 39.9227 101.167 38.3931 104.683 38.7069C108.201 39.0207 111.305 41.1334 112.887 44.2899C114.469 47.447 114.304 51.1977 112.45 54.2029C110.597 57.2087 107.319 59.0402 103.788 59.0438L103.788 59.0303ZM123.482 48.0149C123.482 48.225 123.312 48.3956 123.102 48.3956H116.983C116.773 48.3956 116.603 48.225 116.603 48.0149V47.5287C117.705 47.5287 118.428 47.5287 116.603 47.5287V44.9025V44.9034C116.603 44.6923 116.773 44.5218 116.983 44.5218H123.036C123.246 44.5218 123.416 44.6923 123.416 44.9034L123.482 48.0149Z" fill="white"/>
<path d="M64.6247 27.6365H60.8432C60.1178 27.6365 59.5305 28.2247 59.5305 28.95C59.5305 29.6745 60.1179 30.2626 60.8432 30.2626H64.6247C65.35 30.2626 65.9373 29.6744 65.9373 28.95C65.9373 28.2246 65.35 27.6365 64.6247 27.6365Z" fill="white"/>
</svg>
